<svg xmlns="http://www.w3.org/2000/svg" xmlns:xlink="http://www.w3.org/1999/xlink" id="Layer_1" x="0px" y="0px" viewBox="0 0 720 375.4" style="enable-background:new 0 0 720 375.4;" xml:space="preserve"> <style type="text/css"> .st0{fill:#FFFFFF;} </style> <g> <path class="st0" d="M78.3,285.2V258H69v36.8h195.9v-9.7H78.3V285.2z M628.5,285.2H436v9.7h202v-47.1h-9.4L628.5,285.2L628.5,285.2 z M347.7,28.1L69,107.4v64.1h9.4v-56.7l269.4-76.7l280.8,76.7v34.1h9.4v-41.6L347.7,28.1z"></path> <polygon class="st0" points="299.2,273 299.2,277.9 291.5,277.9 291.5,303.5 285.9,303.5 285.9,277.9 278.1,277.9 278.1,273 "></polygon> <polygon class="st0" points="314.9,303.5 314.9,273.1 334.4,273.1 334.4,278 320.5,278 320.5,285.2 330.6,285.2 330.6,290.1 320.5,290.1 320.5,298.6 334.8,298.6 334.8,303.5 "></polygon> <path class="st0" d="M356.8,273h7l8.4,30.4h-5.6l-1.6-6.6h-9.3l-1.8,6.6h-5.6L356.8,273z M356.9,292.1h6.9l-3.3-13.2h-0.1 L356.9,292.1z"></path> <polygon class="st0" points="387.4,303.5 387.4,273.1 395.4,273.1 401,294.3 401.1,294.3 406.8,273.1 414.8,273.1 414.8,303.5 409.9,303.5 409.9,279.6 409.9,279.6 403.2,303.5 399,303.5 392.4,279.6 392.4,279.6 392.4,303.5 "></polygon> <g> <polygon class="st0" points="109.8,334.1 105.9,326.6 107.2,326.6 110.3,333 113.7,326.6 114.9,326.6 110.9,334.1 110.9,339.6 109.8,339.6 "></polygon> <path class="st0" d="M131.7,333.1c0,3.8-1.8,6.7-5,6.7s-5-2.9-5-6.7c0-3.9,1.8-6.7,5-6.7S131.7,329.2,131.7,333.1 M130.6,333.1 c0-3.7-1.5-5.7-3.8-5.7s-3.8,2.1-3.8,5.7c0,3.7,1.5,5.7,3.8,5.7C129,338.8,130.6,336.8,130.6,333.1"></path> <path class="st0" d="M141.1,326.6v8.9c0,2.5,1.2,3.4,3.4,3.4s3.4-0.9,3.4-3.4v-8.9h1.2v8.8c0,3-1.5,4.4-4.6,4.4s-4.6-1.5-4.6-4.4 v-8.8H141.1z"></path> <path class="st0" d="M166.8,339.6h-1.3l-2.9-5.9h-3.3v5.9h-1.2v-13h4.3c2.5,0,3.9,1.4,3.9,3.5c0,1.7-0.8,2.8-2.6,3.3L166.8,339.6z M159.3,332.7h3.1c1.7,0,2.7-1,2.7-2.6s-0.9-2.6-2.7-2.6h-3.1V332.7z"></path> <polygon class="st0" points="184.7,326.6 193.3,326.6 193.3,327.6 189.6,327.6 189.6,339.6 188.4,339.6 188.4,327.6 184.7,327.6 "></polygon> <path class="st0" d="M209.8,339.6h-1.3l-3-5.9h-3.3v5.9H201v-13h4.3c2.5,0,3.9,1.4,3.9,3.5c0,1.7-0.8,2.8-2.6,3.3L209.8,339.6z M202.4,332.7h3.1c1.7,0,2.7-1,2.7-2.6s-0.9-2.6-2.7-2.6h-3.1V332.7z"></path> <path class="st0" d="M219.6,326.6v8.9c0,2.5,1.2,3.4,3.4,3.4s3.4-0.9,3.4-3.4v-8.9h1.2v8.8c0,3-1.5,4.4-4.6,4.4s-4.6-1.5-4.6-4.4 v-8.8H219.6z"></path> <path class="st0" d="M236.6,336c0.5,2,1.6,2.8,3.6,2.8c1.6,0,2.5-1,2.5-2.6c0-3.5-6.8-2.1-6.8-6.4c0-1.9,1.3-3.4,3.6-3.4 c2,0,3.4,1.1,4,3.1l-1,0.3c-0.5-1.5-1.4-2.5-3-2.5c-1.5,0-2.5,0.9-2.5,2.4c0,0.9,0.2,1.5,2.6,2.4c3.6,1.4,4.3,2.3,4.3,4.2 c0,2.2-1.8,3.4-3.8,3.4c-2.4,0-3.8-1.1-4.5-3.5L236.6,336z"></path> <polygon class="st0" points="250.8,326.6 259.5,326.6 259.5,327.6 255.7,327.6 255.7,339.6 254.6,339.6 254.6,327.6 250.8,327.6 "></polygon> <polygon class="st0" points="267.4,339.6 267.4,326.6 274.6,326.6 274.6,327.6 268.5,327.6 268.5,332.4 272.9,332.4 272.9,333.3 268.5,333.3 268.5,338.6 274.9,338.6 274.9,339.6 "></polygon> <path class="st0" d="M282.7,326.6h3.6c3.9,0,5.5,3,5.5,6.5s-1.6,6.5-5.5,6.5h-3.6V326.6z M283.8,338.6h2.5c2.8,0,4.3-2,4.3-5.5 s-1.5-5.5-4.3-5.5h-2.5V338.6z"></path> <path class="st0" d="M319,339.6h-1.3l-2.9-5.9h-3.3v5.9h-1.1v-13h4.3c2.5,0,3.9,1.4,3.9,3.5c0,1.7-0.8,2.8-2.6,3.3L319,339.6z M311.6,332.7h3.1c1.7,0,2.7-1,2.7-2.6s-0.9-2.6-2.7-2.6h-3.1V332.7z"></path> <polygon class="st0" points="327.7,339.6 327.7,326.6 334.9,326.6 334.9,327.6 328.8,327.6 328.8,332.4 333.2,332.4 333.2,333.3 328.8,333.3 328.8,338.6 335.2,338.6 335.2,339.6 "></polygon> <path class="st0" d="M345.7,326.6h1.8l4,13h-1.2l-1.3-4.3h-4.8l-1.3,4.3h-1.2L345.7,326.6z M348.7,334.4l-2.1-6.8l0,0l-2.1,6.8 H348.7z"></path> <polygon class="st0" points="359.3,326.6 360.5,326.6 360.5,338.6 366.1,338.6 366.1,339.6 359.3,339.6 "></polygon> <polygon class="st0" points="384.1,339.6 384.1,326.6 391.3,326.6 391.3,327.6 385.3,327.6 385.3,332.4 389.6,332.4 389.6,333.3 385.3,333.3 385.3,338.6 391.6,338.6 391.6,339.6 "></polygon> <path class="st0" d="M399.3,336c0.5,2,1.6,2.8,3.6,2.8c1.6,0,2.5-1,2.5-2.6c0-3.5-6.8-2.1-6.8-6.4c0-1.9,1.3-3.4,3.6-3.4 c2,0,3.5,1.1,4,3.1l-1,0.3c-0.5-1.5-1.4-2.5-3-2.5c-1.5,0-2.5,0.9-2.5,2.4c0,0.9,0.2,1.5,2.6,2.4c3.6,1.4,4.3,2.3,4.3,4.2 c0,2.2-1.8,3.4-3.8,3.4c-2.4,0-3.8-1.1-4.5-3.5L399.3,336z"></path> <polygon class="st0" points="413.6,326.6 422.2,326.6 422.2,327.6 418.5,327.6 418.5,339.6 417.3,339.6 417.3,327.6 413.6,327.6 "></polygon> <path class="st0" d="M431.5,326.6h1.8l4,13h-1.2l-1.3-4.3H430l-1.3,4.3h-1.2L431.5,326.6z M434.5,334.4l-2.1-6.8l0,0l-2.1,6.8 H434.5z"></path> <polygon class="st0" points="442.3,326.6 450.9,326.6 450.9,327.6 447.2,327.6 447.2,339.6 446,339.6 446,327.6 442.3,327.6 "></polygon> <polygon class="st0" points="458.8,339.6 458.8,326.6 466,326.6 466,327.6 460,327.6 460,332.4 464.3,332.4 464.3,333.3 460,333.3 460,338.6 466.4,338.6 466.4,339.6 "></polygon> <path class="st0" d="M487.3,326.6h1.8l4,13h-1.2l-1.3-4.3h-4.8l-1.3,4.3h-1.2L487.3,326.6z M490.3,334.4l-2.1-6.8l0,0l-2.1,6.8 H490.3z"></path> <path class="st0" d="M500.9,326.6h3.6c3.9,0,5.5,3,5.5,6.5s-1.6,6.5-5.5,6.5h-3.6V326.6z M502,338.6h2.5c2.8,0,4.3-2,4.3-5.5 s-1.5-5.5-4.3-5.5H502V338.6z"></path> <polygon class="st0" points="516.6,326.6 517.8,326.6 521.2,337.9 521.2,337.9 524.8,326.6 526,326.6 521.8,339.6 520.6,339.6 "></polygon> <rect x="533.6" y="326.6" class="st0" width="1.2" height="13"></rect> <path class="st0" d="M543.8,336c0.5,2,1.6,2.8,3.6,2.8c1.6,0,2.5-1,2.5-2.6c0-3.5-6.8-2.1-6.8-6.4c0-1.9,1.3-3.4,3.7-3.4 c2,0,3.4,1.1,4,3.1l-1,0.3c-0.5-1.5-1.4-2.5-3-2.5c-1.5,0-2.5,0.9-2.5,2.4c0,0.9,0.2,1.5,2.6,2.4c3.6,1.4,4.3,2.3,4.3,4.2 c0,2.2-1.8,3.4-3.8,3.4c-2.4,0-3.8-1.1-4.5-3.5L543.8,336z"></path> <path class="st0" d="M568.3,333.1c0,3.8-1.8,6.7-5,6.7s-5-2.9-5-6.7c0-3.9,1.8-6.7,5-6.7S568.3,329.2,568.3,333.1 M567.2,333.1 c0-3.7-1.5-5.7-3.8-5.7s-3.8,2.1-3.8,5.7c0,3.7,1.5,5.7,3.8,5.7C565.7,338.8,567.2,336.8,567.2,333.1"></path> <path class="st0" d="M585.2,339.6h-1.3l-2.9-5.9h-3.3v5.9h-1.2v-13h4.3c2.5,0,3.9,1.4,3.9,3.5c0,1.7-0.8,2.8-2.6,3.3L585.2,339.6z M577.7,332.7h3.1c1.7,0,2.7-1,2.7-2.6s-0.9-2.6-2.7-2.6h-3.1V332.7z"></path> <path class="st0" d="M593.7,336c0.5,2,1.6,2.8,3.6,2.8c1.6,0,2.5-1,2.5-2.6c0-3.5-6.8-2.1-6.8-6.4c0-1.9,1.3-3.4,3.7-3.4 c2,0,3.5,1.1,4,3.1l-1,0.3c-0.5-1.5-1.4-2.5-3-2.5c-1.5,0-2.5,0.9-2.5,2.4c0,0.9,0.2,1.5,2.6,2.4c3.6,1.4,4.3,2.3,4.3,4.2 c0,2.2-1.8,3.4-3.8,3.4c-2.4,0-3.8-1.1-4.5-3.5L593.7,336z"></path> </g> <path class="st0" d="M32.7,258c-0.7,0-1.4-0.1-2.1-0.2c-0.5-0.1-0.9-0.3-1.2-0.8c-0.3-0.4-0.4-0.9-0.3-1.4s0.3-0.9,0.7-1.2 c0.3-0.2,0.6-0.3,1-0.3c0.1,0,0.2,0,0.3,0c0.5,0.1,0.9,0.1,1.4,0.1c1.9,0,4-0.6,6.2-1.8c2.9-1.5,5.8-3.7,8.6-6.5 c2.9-2.9,6.1-6.5,9.4-10.8c3.3-4.3,6.6-8.8,9.6-13.5c2.7-4.2,5.7-9,8.8-14.1c-0.7,0.2-1.3,0.3-1.7,0.3c-0.4,0-0.7-0.1-0.9-0.2 c-0.7-0.4-1-1-0.9-1.7c0.1-0.6,0.4-1.1,0.9-1.4c0.4-0.2,1-0.4,1.8-0.7c1.1-0.3,2.2-0.6,3.3-0.8c0.1-0.1,0.2-0.1,0.4-0.2 c4.8-8.1,11.5-20.1,19.8-35.7c6.2-11.4,10.6-19.3,13.1-23.7c0.4-0.8,1-1,1.4-1c0.3,0,0.6,0.1,1,0.3c1,0.6,1.2,1.5,0.7,2.5 c-2.5,4.3-6.9,12.2-13.1,23.7c-7.3,13.5-13.1,24-17.3,31.3c15.6-7.4,35.1-20,58-37.3c0.4-0.3,0.7-0.4,1.1-0.4 c0.4,0,0.9,0.1,1.4,0.8c0.7,0.9,0.5,1.9-0.4,2.6c-19.9,15.1-37.5,26.7-52.4,34.5c-1.7,0.9-3.3,1.7-4.9,2.5c0.6,0.1,1.1,0.3,1.7,0.5 c1.1,0.4,2.2,1,3.1,1.7s1.7,1.4,2.4,2.1c0.8,0.7,1.5,1.7,2.1,2.8c0.7,1.1,1.2,2.1,1.6,2.8c0.4,0.8,0.9,1.9,1.5,3.3 c0.5,1.4,0.9,2.5,1.2,3.2c0.3,0.8,0.7,1.9,1.1,3.4l1.2,3.5c0.3,0.8,0.7,1.8,1.2,3.1s1,2.3,1.4,2.9c0.5,0.7,1,1.5,1.6,2.3 s1.2,1.4,1.9,1.8c0.7,0.4,1.4,0.7,2.2,0.9c0.7,0.2,1.4,0.3,2.2,0.3c1.1,0,2.3-0.2,3.6-0.5c2.3-0.6,4.9-1.8,7.8-3.4 c2.9-1.7,6.2-3.9,9.8-6.7c3.6-2.8,7.6-6.2,12-10.1c4.4-3.9,9.1-8.5,14.2-13.5c0.4-0.4,0.8-0.6,1.3-0.6c0.4,0,0.9,0.2,1.3,0.7 c0.4,0.4,0.5,0.9,0.5,1.3c0,0.4-0.2,0.9-0.7,1.3c-12.1,12-22.2,21-30.2,26.7c-8.1,5.7-14.7,8.6-19.6,8.6c-1,0-2-0.1-2.9-0.4 c-1.4-0.4-2.6-1-3.8-1.9c-1.1-0.9-2-1.8-2.7-2.7s-1.4-2.2-2.2-3.9c-0.8-1.6-1.3-3-1.7-4.1c-0.4-1-0.9-2.5-1.5-4.5 c-0.9-2.7-1.6-4.7-2.1-6s-1.2-2.9-2.3-4.9c-1-1.9-2.1-3.3-3.2-4.2s-2.6-1.6-4.3-2.2c-1.1-0.4-2.3-0.5-3.6-0.5 c-0.7,0-1.4,0.1-2.1,0.1c-5.1,8.6-9.9,16.2-14.2,22.4C52.5,248.5,41.6,258,32.7,258"></path> <path class="st0" d="M112.5,143c0.2,0,0.4,0.1,0.7,0.2c0.7,0.4,0.8,1,0.4,1.7c-2.6,4.3-6.9,12.2-13.1,23.7 c-7.9,14.6-14,25.6-18.3,33c15.9-7.4,35.9-20.1,59.8-38.2c0.3-0.2,0.5-0.3,0.8-0.3s0.6,0.2,0.9,0.6c0.5,0.6,0.4,1.2-0.3,1.7 c-20,15.1-37.4,26.6-52.3,34.5c-2.3,1.2-4.5,2.3-6.6,3.3c1.2,0.2,2.3,0.4,3.4,0.8c1.1,0.4,2.1,0.9,2.9,1.6c0.9,0.7,1.7,1.3,2.3,2 c0.7,0.7,1.4,1.6,2,2.7c0.6,1.1,1.2,2.1,1.6,2.9c0.4,0.8,0.9,1.9,1.4,3.2c0.5,1.4,0.9,2.4,1.2,3.2c0.3,0.8,0.6,1.9,1.1,3.4 c0.5,1.6,0.9,2.7,1.2,3.5c0.3,0.8,0.7,1.8,1.2,3.1s1,2.3,1.5,3.1c0.5,0.7,1,1.5,1.6,2.3s1.3,1.5,2,2s1.5,0.8,2.4,1 c0.7,0.2,1.5,0.3,2.3,0.3c1.1,0,2.4-0.2,3.7-0.5c2.3-0.6,5-1.8,7.9-3.5c3-1.7,6.2-4,9.9-6.8s7.7-6.2,12-10.1 c4.3-3.9,9.1-8.4,14.2-13.5c0.3-0.3,0.6-0.5,0.9-0.5c0.3,0,0.6,0.2,0.8,0.5c0.5,0.6,0.5,1.2-0.1,1.8c-12.1,12-22.2,20.9-30.2,26.6 c-8,5.7-14.4,8.5-19.3,8.5c-1,0-1.9-0.1-2.8-0.3c-1.3-0.3-2.5-0.9-3.6-1.8c-1.1-0.8-2-1.7-2.6-2.6c-0.7-0.9-1.4-2.2-2.1-3.8 s-1.3-3-1.7-4c-0.3-1-0.8-2.5-1.5-4.5c-0.9-2.7-1.6-4.7-2.1-6s-1.3-3-2.3-5c-1.1-2-2.2-3.4-3.4-4.3c-1.2-0.9-2.7-1.7-4.5-2.3 c-1.2-0.4-2.4-0.6-3.8-0.6c-0.8,0-1.6,0.1-2.4,0.2c-5.2,8.8-10,16.3-14.4,22.6c-13.3,19.4-24.3,29-32.9,29c-0.7,0-1.4-0.1-2-0.2 c-0.3-0.1-0.6-0.2-0.8-0.5c-0.2-0.3-0.2-0.6-0.2-0.9c0.1-0.3,0.2-0.6,0.5-0.8c0.2-0.1,0.4-0.2,0.7-0.2c0.1,0,0.1,0,0.2,0 c0.5,0.1,1,0.1,1.5,0.1c2,0,4.2-0.6,6.5-1.8c2.9-1.5,5.9-3.7,8.8-6.6c2.9-2.9,6.1-6.5,9.5-10.8s6.6-8.9,9.6-13.5 c3-4.7,6.3-9.8,9.6-15.5c-1.4,0.5-2.4,0.7-3,0.7c-0.3,0-0.5,0-0.6-0.1c-0.5-0.3-0.7-0.7-0.6-1.2c0.1-0.4,0.2-0.8,0.6-1 c0.3-0.2,0.9-0.4,1.6-0.6c1.1-0.3,2.2-0.6,3.3-0.8c0.2-0.1,0.4-0.2,0.7-0.3c4.8-8.1,11.5-20.1,19.9-35.9 c6.2-11.4,10.6-19.3,13.1-23.7C111.8,143.3,112.1,143,112.5,143 M112.5,141.8c-0.5,0-1.3,0.2-1.9,1.3c-2.5,4.3-7,12.3-13.1,23.7 c-8.3,15.5-15,27.4-19.7,35.5c-0.1,0-0.2,0.1-0.3,0.1c-1.1,0.2-2.2,0.5-3.2,0.8c-0.8,0.2-1.4,0.5-1.9,0.7c-0.5,0.3-1,0.8-1.1,1.9 c-0.1,1,0.3,1.8,1.2,2.4c0.3,0.2,0.7,0.3,1.2,0.3c0.1,0,0.3,0,0.5,0c-2.8,4.7-5.6,9.1-8.1,12.9c-3,4.7-6.2,9.2-9.6,13.4 c-3.3,4.3-6.5,7.9-9.3,10.7s-5.7,4.9-8.5,6.4c-2.1,1.1-4.2,1.7-6,1.7c-0.5,0-0.9,0-1.3-0.1c-0.1,0-0.3,0-0.4,0 c-0.5,0-1,0.2-1.3,0.4c-0.5,0.4-0.9,0.9-1,1.6s0,1.3,0.4,1.8c0.4,0.6,0.9,0.9,1.5,1c0.7,0.1,1.5,0.2,2.2,0.2 c9.1,0,20.2-9.7,33.9-29.5c4.3-6.2,9-13.6,14.1-22.2c0.6-0.1,1.2-0.1,1.7-0.1c1.2,0,2.4,0.2,3.5,0.5c1.7,0.5,3.1,1.2,4.1,2.1 c1,0.8,2.1,2.2,3.1,4c1,1.9,1.8,3.5,2.3,4.8s1.2,3.3,2.1,6c0.6,1.9,1.1,3.4,1.5,4.5s1,2.5,1.7,4.1c0.8,1.7,1.5,3.1,2.3,4 c0.7,1,1.7,1.9,2.9,2.8c1.2,0.9,2.5,1.6,4,2c1,0.2,2,0.4,3,0.4c5.2,0,11.7-2.9,20-8.7c8-5.7,18.2-14.7,30.3-26.7 c0.6-0.6,0.8-1.2,0.8-1.7c0-0.4-0.1-1.1-0.7-1.8c-0.6-0.7-1.3-0.9-1.7-0.9c-0.6,0-1.2,0.3-1.7,0.8c-5.1,5-9.8,9.5-14.2,13.5 c-4.3,3.9-8.3,7.3-11.9,10.1c-3.6,2.8-6.9,5-9.8,6.7c-2.8,1.6-5.4,2.8-7.6,3.4c-1.2,0.3-2.4,0.5-3.4,0.5c-0.7,0-1.4-0.1-2-0.2H111 c-0.7-0.1-1.4-0.4-2-0.8c-0.6-0.4-1.2-1-1.7-1.7c-0.6-0.8-1.1-1.6-1.6-2.3c-0.4-0.7-0.9-1.6-1.4-2.8c-0.5-1.3-0.9-2.3-1.2-3.1 l-0.4-1.3l-0.8-2.2c-0.5-1.5-0.9-2.6-1.1-3.4c-0.3-0.8-0.7-1.9-1.2-3.2c-0.5-1.4-1-2.6-1.5-3.4c-0.4-0.8-1-1.7-1.6-2.9 c-0.7-1.2-1.5-2.2-2.2-2.9s-1.6-1.4-2.4-2.1c-1-0.7-2-1.3-3.2-1.8c-0.1,0-0.1,0-0.2-0.1c1.2-0.6,2.3-1.2,3.5-1.8 c14.9-7.9,32.6-19.5,52.5-34.6c1.2-0.9,1.4-2.2,0.5-3.4c-0.6-0.9-1.4-1.1-1.9-1.1s-0.9,0.2-1.4,0.5c-22.1,16.7-41,28.9-56.3,36.4 c4.1-7.2,9.6-17.2,16.3-29.7c6.2-11.4,10.5-19.4,13-23.6c0.7-1.4,0.4-2.6-0.9-3.4C113.3,142,112.9,141.8,112.5,141.8"></path> <path class="st0" d="M153.1,242.6c-0.7,0-1.3-0.2-1.8-0.7c-0.6-0.5-0.9-1.2-0.9-2c0-0.7,0.2-1.7,0.7-3c0.5-1.2,1.1-2.5,1.7-3.9 c0.7-1.4,1.7-3.3,3-5.8c4.5-8.5,5.2-10.8,5.2-11.4c-0.1-1.4-0.6-3.2-1.7-5.1c-1.1-2-1.7-3.6-1.8-5c0,0,0-0.1,0-0.2 c-0.4-4.3,0.3-7.9,2.2-10.8c1.9-2.8,4.3-4.6,7.3-5.3c0.8-0.2,1.5-0.3,2.2-0.3c0.9,0,1.7,0.1,2.5,0.4c1.4,0.5,2.4,1.5,2.8,2.8 c0.2,0.3,0.3,0.9,0.2,1.6c-0.1,0.6-0.2,1.2-0.4,1.8c-0.2,0.7-0.6,1.4-1.3,2.3c-0.7,0.8-1.5,1.7-2.5,2.5c-1,0.9-2.3,1.8-4,2.9 c-1.5,1-3.3,2-5.2,2.9c0.2,0.6,0.6,1.5,1.2,2.5c1.4,2.5,2.1,4.8,2.1,6.8c0.1,1.1-0.4,2.7-1.3,4.7c-0.9,1.9-2.3,4.8-4.3,8.5 c-2.7,5.1-4,7.8-4.5,9.3c1-0.5,2.3-1.4,4-2.7c1.6-1.2,4.5-3.6,8.6-7.2c3.3-2.8,5.9-5,7.9-6.6s4.7-3.7,8-6.2 c3.3-2.6,6.6-4.8,9.6-6.6s6-3.4,8.8-4.6l1.1-0.5c0.1,0,0.1,0,0.2,0c0.1,0,0.2,0,0.2,0c0.1,0.1,0.3,0.2,0.3,0.3l0.4,1.1 c0.4,1.1,0.1,1.9-0.9,2.4c-2.2,0.9-4.6,2.2-7.1,3.7s-4.8,2.9-6.8,4.3c-2,1.4-4.4,3.2-7.1,5.3c-2.7,2.2-4.8,3.9-6.3,5.1 c-1.5,1.2-3.5,2.9-6.1,5.1c-1.5,1.3-2.6,2.2-3.3,2.9c-0.8,0.6-1.7,1.4-2.7,2.2c-1.1,0.8-2,1.5-2.7,2.1 C156.9,241.4,154.6,242.6,153.1,242.6 M169.2,193c-0.4,0-0.9,0.1-1.4,0.1c-1.8,0.4-3.5,1.5-4.8,3.3c-1.2,1.6-1.9,3.6-2,6.2 c2.6-1.4,4.7-2.7,6.3-4.1c2.2-1.8,3-2.8,3.3-3.4c0.4-0.7,0.5-1.2,0.4-1.5C170.9,193.1,169.8,193,169.2,193"></path> <path class="st0" d="M169.1,189.9c0.8,0,1.5,0.1,2.2,0.4c1.3,0.5,2.1,1.3,2.5,2.4c0.2,0.3,0.3,0.8,0.2,1.3 c-0.1,0.6-0.2,1.1-0.4,1.7c-0.2,0.6-0.6,1.3-1.2,2.1c-0.6,0.8-1.4,1.6-2.4,2.5c-0.9,0.8-2.2,1.8-3.9,2.8s-3.5,2.1-5.6,3.1 c0.2,0.7,0.6,1.8,1.4,3.1c1.3,2.4,2,4.6,2,6.5c0.1,1-0.4,2.5-1.2,4.5c-0.9,1.9-2.3,4.8-4.3,8.5c-3.1,5.9-4.8,9.4-4.9,10.6 c1-0.3,2.8-1.4,5.3-3.3c1.6-1.2,4.5-3.6,8.7-7.2c3.3-2.8,5.9-5,7.9-6.6s4.6-3.7,8-6.2c3.3-2.5,6.5-4.7,9.5-6.6 c3-1.8,5.9-3.4,8.7-4.5c0.8-0.3,1.1-0.5,1.1-0.5s0.2,0.4,0.5,1.1c0.3,0.8,0.1,1.3-0.6,1.6c-2.2,0.9-4.6,2.2-7.1,3.7s-4.8,3-6.9,4.4 c-2,1.4-4.4,3.2-7.1,5.3c-2.7,2.2-4.8,3.9-6.3,5.1c-1.5,1.2-3.5,2.9-6.1,5.1c-1.5,1.3-2.6,2.2-3.3,2.9c-0.8,0.6-1.7,1.4-2.7,2.2 c-1.1,0.8-2,1.5-2.7,2.1c-3.4,2.6-5.8,3.9-7.1,3.9c-0.5,0-1-0.2-1.4-0.5c-0.4-0.4-0.7-0.9-0.7-1.6c0-0.6,0.2-1.6,0.6-2.8 c0.5-1.2,1-2.5,1.7-3.8c0.7-1.4,1.7-3.3,3-5.7c3.5-6.6,5.3-10.5,5.3-11.7c-0.1-1.6-0.6-3.4-1.8-5.4c-1-1.9-1.6-3.5-1.8-4.8v-0.1 c-0.4-4.2,0.3-7.7,2.1-10.4s4.1-4.4,6.9-5.1C167.8,190,168.5,189.9,169.1,189.9 M160.3,203.6c3-1.6,5.5-3.1,7.3-4.6s3-2.7,3.5-3.5 s0.6-1.5,0.5-2c-0.2-0.7-1-1.1-2.4-1.1c-0.5,0-1,0.1-1.5,0.2c-2,0.4-3.7,1.6-5.1,3.5C161,197.9,160.3,200.4,160.3,203.6 M169.1,188.7c-0.8,0-1.6,0.1-2.4,0.3c-3.1,0.7-5.6,2.6-7.6,5.6c-2,2.9-2.7,6.7-2.3,11.2l0,0c0,0.1,0,0.1,0,0.2 c0.2,1.5,0.8,3.1,1.9,5.2c1,1.9,1.6,3.5,1.6,4.9c0,0.3-0.4,2.2-5.1,11.1c-1.3,2.4-2.3,4.3-3,5.8c-0.7,1.4-1.3,2.7-1.8,4 c-0.5,1.4-0.8,2.4-0.7,3.3c0,1,0.4,1.8,1.1,2.4c0.6,0.5,1.3,0.8,2.2,0.8c1,0,2.9-0.4,7.7-4.2c0.7-0.5,1.6-1.2,2.7-2.1 c1.1-0.9,2-1.6,2.7-2.3c0.8-0.6,1.9-1.6,3.3-2.9c2.6-2.2,4.6-3.9,6.1-5.1c1.5-1.2,3.6-2.9,6.3-5.1c2.7-2.1,5.1-3.9,7.1-5.3 c2-1.4,4.3-2.8,6.8-4.3s4.8-2.7,7-3.6c1.3-0.6,1.8-1.8,1.3-3.2l-0.4-1.1c-0.1-0.3-0.4-0.5-0.6-0.7c-0.1-0.1-0.3-0.1-0.5-0.1 c-0.1,0-0.3,0-0.5,0.1c0,0-0.4,0.2-1.1,0.5c-2.8,1.2-5.7,2.7-8.8,4.6c-3,1.8-6.3,4.1-9.6,6.6s-6,4.6-8,6.3c-2,1.6-4.7,3.9-7.9,6.6 c-4.2,3.5-7.1,6-8.6,7.2c-0.9,0.7-1.7,1.3-2.4,1.7c0.7-1.6,1.9-3.9,3.8-7.5c2-3.7,3.5-6.6,4.3-8.6c1-2.1,1.4-3.8,1.3-5 c-0.1-2.1-0.8-4.5-2.2-7.1c-0.5-0.8-0.8-1.4-1-1.9c1.8-0.9,3.4-1.8,4.8-2.7c1.7-1.1,3.1-2,4-2.9c1-0.9,1.8-1.8,2.5-2.6 c0.8-0.9,1.2-1.8,1.4-2.5c0.2-0.6,0.3-1.3,0.4-1.9c0.1-0.8,0-1.5-0.3-2.1c-0.5-1.4-1.6-2.4-3.1-3 C171,188.8,170.1,188.7,169.1,188.7 M161.6,201.6c0.2-1.9,0.8-3.5,1.8-4.8c1.3-1.7,2.7-2.6,4.5-3c0.4-0.1,0.9-0.1,1.3-0.1 c1.1,0,1.3,0.3,1.3,0.3s0,0.3-0.4,1c-0.3,0.5-1.1,1.4-3.2,3.2C165.5,199.2,163.7,200.4,161.6,201.6"></path> <path class="st0" d="M193.9,229.2c-1,0-1.9-0.3-2.5-0.9c-0.6-0.7-0.8-1.4-0.9-2.4c0-0.9,0.2-2.1,0.7-3.8c0.5-1.6,1.5-3.8,3.2-6.7 c1.6-2.8,3.7-6.2,6.4-10.4c0.5-0.7,1-0.9,1.4-0.9s0.7,0.1,1.1,0.4c0.5,0.3,0.8,0.7,0.8,1.2c0.1,0.4-0.1,0.9-0.4,1.4 c-2,3.1-3.7,5.9-5.2,8.3c-1.4,2.4-2.4,4.3-3,5.6s-1,2.3-1.3,3.1c-0.3,1.1-0.3,1.3-0.3,1.4l0,0h0.1c0.6,0,2.1-0.4,5.7-2.5 c2.5-1.4,6.8-4.1,12.8-8.2c8.5-5.8,14-9.2,16.7-10.2c0.2-0.1,0.4-0.1,0.6-0.1c0.3,0,0.5,0.1,0.8,0.2c0.4,0.2,0.8,0.6,0.9,1.1 c0.2,0.5,0.1,0.9-0.1,1.4c-0.2,0.4-0.5,0.8-0.9,0.9c-2.4,0.9-7.8,4.2-16,9.7c-5.9,4-10.4,6.9-13.3,8.6 C198,228.3,195.6,229.2,193.9,229.2 M208.3,193.2c-0.1,0-0.3,0-0.4-0.1c0,0-0.1,0-0.2,0c-0.1,0-0.4-0.1-0.7-0.2 c-0.3-0.1-0.6-0.3-0.9-0.5c-0.3-0.2-0.6-0.5-0.8-0.8c-0.2-0.4-0.4-0.8-0.4-1.3c-0.1-0.5,0.1-1.1,0.6-1.6c0.8-0.9,2.1-1.3,4.1-1.3 c0.5,0,0.9,0.2,1.3,0.6c0.3,0.4,0.5,0.8,0.5,1.3s-0.2,0.9-0.5,1.3c-0.2,0.2-0.4,0.4-0.7,0.4c0,0.2,0,0.4,0,0.6 C210,192.6,209.3,193.2,208.3,193.2"></path> <path class="st0" d="M209.5,188c0.3,0,0.6,0.1,0.9,0.4c0.2,0.2,0.4,0.5,0.4,0.9c0,0.3-0.1,0.6-0.4,0.9c-0.2,0.3-0.5,0.4-0.9,0.4 h-0.3c0.3,0.3,0.4,0.6,0.3,1c-0.1,0.7-0.5,1.1-1.2,1.1c-0.1,0-0.1,0-0.2,0c-0.1,0-0.1-0.1-0.3-0.1c-0.1,0-0.4-0.1-0.6-0.2 c-0.3-0.1-0.6-0.2-0.8-0.4s-0.5-0.4-0.7-0.7s-0.3-0.6-0.3-0.9c-0.1-0.4,0.1-0.8,0.4-1.2C206.5,188.3,207.8,188,209.5,188 M202.2,204.8c0.2,0,0.5,0.1,0.8,0.3c0.7,0.5,0.8,1,0.3,1.7c-2.1,3.1-3.8,5.9-5.2,8.4s-2.4,4.3-3,5.6s-1,2.4-1.3,3.2 c-0.3,0.9-0.4,1.4-0.4,1.6c0,0.2,0.1,0.4,0.1,0.4c0.1,0.1,0.3,0.1,0.5,0.1c1,0,3-0.9,5.9-2.6c2.5-1.4,6.8-4.1,12.8-8.2 c8.4-5.7,14-9.1,16.5-10.1c0.1-0.1,0.3-0.1,0.4-0.1c0.2,0,0.4,0,0.5,0.1c0.3,0.1,0.5,0.4,0.6,0.7s0.1,0.7,0,1s-0.3,0.5-0.6,0.6 c-2.4,0.9-7.8,4.2-16.1,9.8c-5.9,4-10.3,6.9-13.3,8.6c-3,1.7-5.3,2.5-6.9,2.5c-0.9,0-1.6-0.2-2.1-0.7c-0.4-0.5-0.7-1.1-0.7-1.9 c0-0.8,0.2-2,0.7-3.6s1.5-3.8,3.1-6.6s3.7-6.3,6.4-10.3C201.5,205,201.8,204.8,202.2,204.8 M209.5,186.8c-2.1,0-3.6,0.5-4.5,1.5 c-0.5,0.6-0.8,1.3-0.7,2.1c0,0.5,0.2,1.1,0.5,1.5s0.6,0.7,1,1c0.3,0.2,0.7,0.4,1.1,0.5c0.3,0.1,0.6,0.2,0.8,0.3h0.1 c0.2,0.1,0.4,0.1,0.6,0.1c1.3,0,2.2-0.8,2.4-2.1c0-0.1,0-0.2,0-0.3c0.2-0.1,0.3-0.2,0.5-0.4c0.5-0.5,0.7-1.1,0.7-1.7 c0-0.7-0.2-1.3-0.7-1.7C210.8,187,210.2,186.8,209.5,186.8 M202.2,203.6c-0.4,0-1.2,0.1-1.9,1.1c-2.7,4.2-4.8,7.6-6.4,10.4 c-1.7,2.9-2.7,5.2-3.2,6.9s-0.8,3-0.7,4c0,1.1,0.4,2,1,2.7l0.1,0.1c0.8,0.7,1.7,1.1,2.9,1.1c1.8,0,4.3-0.9,7.5-2.7 c3-1.7,7.4-4.5,13.4-8.6c8.2-5.6,13.5-8.8,15.9-9.7c0.6-0.2,1-0.7,1.3-1.3s0.3-1.2,0.1-1.9s-0.6-1.1-1.2-1.4 c-0.3-0.1-0.6-0.2-1-0.2c-0.3,0-0.5,0-0.8,0.1c-2.7,1.1-8.2,4.4-16.8,10.3c-6,4-10.3,6.8-12.7,8.1c-2.6,1.5-4,2.1-4.7,2.3 c0-0.1,0.1-0.3,0.1-0.5c0.2-0.8,0.7-1.8,1.2-3.1c0.6-1.3,1.6-3.1,3-5.5s3.1-5.2,5.2-8.3c0.5-0.7,0.6-1.4,0.5-1.8 c-0.1-0.6-0.5-1.2-1.1-1.6C203.1,203.8,202.6,203.6,202.2,203.6"></path> <path class="st0" d="M217,250.9c-0.3,0-0.5,0-0.7-0.1c-0.8-0.2-1.5-0.8-1.7-1.7c0-0.1,0-0.2,0-0.3s0-0.2,0-0.3 c-0.2-0.4-0.1-0.9,0.3-1.8c0.3-0.6,0.7-1.3,1.2-2.1s1.3-1.8,2.4-3.3c1.2-1.4,2.6-2.9,4.2-4.7c3-3.2,6.7-7,11.1-11.5 c-0.3-1.9-1.1-4.8-2.5-8.4c-0.5-1.4-1-2.5-1.2-3.2c-0.3-0.7-0.6-1.8-0.9-3.1c-0.3-1.4-0.5-2.5-0.5-3.5c0-0.9,0.1-2.1,0.3-3.3 c0.2-1.3,0.6-2.5,1.2-3.7c1.7-3.5,4-6.4,6.7-8.7c2.6-2.2,4.7-3.2,6.5-3.2c0.1,0,0.3,0,0.4,0c1.3,0.1,2.2,0.9,2.5,2.1 c1,3.4-3.6,9-14,17.3c0.2,1.8,1,4.4,2.4,7.9c1.1,2.7,1.8,4.9,2.2,6.6c10.9-11.2,22.2-22.6,33.4-33.9c3.2-3.2,6.3-6.4,9.3-9.3 c-0.7,0-1.4,0-2.3,0.1c-7.1,0.1-13.2,0.2-18.1,0.2c-3.6,0-6.7,0-9.1-0.1l0,0c-0.5,0-0.9-0.2-1.2-0.6c-0.3-0.4-0.5-0.8-0.5-1.3 c0-0.3,0.1-0.6,0.2-0.9c0.2-0.2,0.4-0.4,0.7-0.6c0.3-0.2,0.6-0.2,0.9-0.2c2.1,0.1,4.7,0.1,7.7,0.1c5.1,0,11.6-0.1,19.4-0.3 c2.6,0,4.6-0.1,6.1-0.1c3.5-3.5,6.6-6.5,9.2-9.1c3-2.9,5.4-5.1,7-6.6c0.8-0.7,1.4-1.2,1.7-1.5c0.3-0.3,0.7-0.6,1.2-0.9 c0.5-0.3,0.8-0.4,1.2-0.4c0.5,0.1,0.8,0.2,1.2,0.5c0.4,0.4,0.5,0.7,0.6,1c0.1,0.4,0,0.9-0.4,1.4c-0.3,0.4-0.5,0.8-0.8,1.1 c-0.2,0.3-0.7,0.9-1.4,1.7c-2.3,2.7-5.4,6.9-9.2,12.6c1,0,2,0,3,0c10.6,0,19.2,0.4,25.5,1.2c0.5,0.1,0.9,0.3,1.2,0.7 c0.3,0.4,0.4,0.9,0.4,1.4c-0.1,1-0.7,1.6-1.8,1.6c-6.3-0.8-14.8-1.2-25.3-1.2c-1.7,0-3.6,0-5.4,0c-4.8,7.3-9.1,14.5-12.9,21.4 c-1,1.7-1.9,3.5-2.8,5.3s-2,4-3.2,6.4c-1.2,2.5-2.2,4.8-3.1,7s-1.6,4.4-2.2,6.5s-0.9,3.9-0.9,5.5c0,1.5,0.3,2.6,1,3.2 c0.5,0.5,1.2,0.8,2.1,0.9c0.1,0,0.2,0,0.4,0c1.1,0,2.7-0.4,4.8-1.1c2.5-0.9,5.5-2.3,8.9-4.3c3.5-2,8.2-5.1,14-9.2 c5.8-4.1,12.5-9.2,19.8-15.2c0.4-0.3,0.7-0.5,1.1-0.5c0.5,0,0.9,0.3,1.3,0.8c0.7,0.9,0.6,1.9-0.3,2.6 c-15.9,12.9-28.5,21.8-37.5,26.4c-5.1,2.6-9.3,4-12.3,4c-2.2,0-3.9-0.6-5-1.9c-4.4-4.8-0.9-17.3,10.8-38.4 c3.4-6.2,7.3-12.8,11.6-19.5c-0.7,0-1.3,0-2,0c-15.1,15-31,31.2-47.2,47.9c0.2,5.2-2,10.4-6.6,15.2c-2.2,2.3-4.6,4.4-7.3,6.2 C220.6,250,218.5,250.9,217,250.9 M233.2,230.8c-3.1,3.2-5.8,6.1-8.2,8.5c-2.9,3-4.9,5.4-6.1,7.1c0.9-0.4,1.9-1.1,3.1-1.9 c2-1.4,4-3.1,6.1-5.3C230.7,236.5,232.5,233.6,233.2,230.8 M242.3,191.9c-0.8,0.3-1.9,0.9-3.8,2.5c-2,1.8-3.9,4.3-5.5,7.4 c0,0-0.1,0.1-0.1,0.2c2.1-1.8,3.9-3.4,5.3-4.9c1.8-1.9,3-3.3,3.5-4.2C242,192.5,242.1,192.2,242.3,191.9 M288.9,175 c0.5-0.7,0.9-1.3,1.3-2c-0.6,0.6-1.3,1.3-2,2H288.9z"></path> <path class="st0" d="M303.2,157.1C303.3,157.1,303.3,157.1,303.2,157.1c0.3,0,0.5,0.2,0.8,0.4c0.2,0.2,0.3,0.5,0.4,0.7s0,0.6-0.3,1 c-0.2,0.4-0.5,0.8-0.7,1.1s-0.7,0.9-1.3,1.7c-2.4,2.8-5.7,7.4-9.9,13.6c1.4,0,2.8,0,4.1,0c10.6,0,19.1,0.4,25.4,1.2 c0.3,0,0.6,0.2,0.8,0.5c0.2,0.3,0.3,0.6,0.2,0.9c0,0.7-0.5,1.1-1.2,1.1h-0.1c-6.2-0.8-14.6-1.2-25.2-1.2c-1.9,0-3.8,0-5.8,0 c-4.9,7.4-9.2,14.6-13.1,21.7c-1,1.7-1.9,3.5-2.8,5.3s-2,4-3.2,6.4c-1.2,2.5-2.2,4.8-3.1,7.1c-0.9,2.2-1.6,4.4-2.2,6.6 c-0.6,2.1-0.9,4-0.9,5.7c0,1.6,0.4,2.9,1.1,3.6c0.5,0.6,1.4,1,2.5,1.1c0.1,0,0.3,0,0.4,0c1.1,0,2.8-0.4,5-1.1 c2.5-0.9,5.5-2.3,9-4.3s8.2-5.1,14.1-9.2c5.9-4.2,12.5-9.2,19.8-15.2c0.3-0.2,0.5-0.3,0.7-0.3c0.3,0,0.6,0.2,0.9,0.5 c0.5,0.6,0.4,1.2-0.2,1.7c-15.9,12.9-28.4,21.7-37.4,26.4c-5.1,2.6-9.1,3.9-12.1,3.9c-2,0-3.5-0.6-4.6-1.7 c-4.2-4.5-0.5-17.1,10.9-37.7c3.6-6.6,7.7-13.4,12.3-20.4c-1.2,0.1-2.3,0.1-3.3,0.1c-15.2,15.2-31.1,31.3-47.6,48.3 c0.3,5.2-1.9,10.2-6.4,15.1c-2.2,2.3-4.6,4.3-7.2,6.2c-2.6,1.8-4.6,2.7-6,2.7c-0.2,0-0.4,0-0.6-0.1c-0.7-0.2-1.2-0.6-1.4-1.3 c0-0.3,0-0.5-0.1-0.7s0-0.6,0.3-1.2c0.3-0.6,0.7-1.3,1.1-2.1c0.5-0.7,1.3-1.8,2.4-3.2c1.1-1.4,2.5-2.9,4.1-4.6 c3.1-3.2,6.8-7.2,11.3-11.7c-0.2-2-1.1-5-2.6-8.9c-0.5-1.4-1-2.5-1.2-3.2c-0.3-0.7-0.6-1.7-0.9-3.1c-0.3-1.3-0.5-2.4-0.5-3.4 c0-0.9,0.1-2,0.2-3.2c0.2-1.2,0.6-2.4,1.2-3.5c1.7-3.5,3.9-6.3,6.5-8.5c2.4-2.1,4.5-3.1,6.1-3.1c0.1,0,0.2,0,0.3,0 c1.1,0.1,1.8,0.7,2,1.7c0.9,3.1-3.8,8.7-14,16.8c0.2,1.8,1,4.7,2.4,8.5c1.3,3.3,2.1,5.8,2.4,7.6c11-11.3,22.3-22.8,34.1-34.7 c3.6-3.7,7.1-7.1,10.4-10.4c-0.9,0-2.2,0-3.8,0.1c-7.2,0.1-13.2,0.2-18.1,0.2c-3.7,0-6.7,0-9.1-0.1c-0.3,0-0.6-0.1-0.8-0.4 c-0.2-0.3-0.3-0.5-0.3-0.9c0-0.2,0-0.4,0.1-0.6c0.1-0.2,0.3-0.3,0.5-0.4c0.2-0.1,0.4-0.2,0.6-0.2c2.1,0.1,4.6,0.1,7.7,0.1 c5.1,0,11.6-0.1,19.4-0.3c2.8-0.1,4.9-0.1,6.3-0.1c3.6-3.6,6.7-6.7,9.3-9.3c3-2.9,5.4-5.1,7-6.6c0.8-0.7,1.4-1.2,1.7-1.5 c0.3-0.3,0.7-0.5,1.1-0.8C302.7,157.3,303,157.1,303.2,157.1 M294.3,168.2c-2.2,2.1-4.7,4.6-7.5,7.4h2.4 C291,172.9,292.7,170.4,294.3,168.2 M243.1,191.2H243c-1.1,0-2.7,0.9-4.8,2.8c-2.1,1.8-4,4.4-5.6,7.6c-0.4,0.8-0.7,1.6-0.9,2.3 c2.9-2.3,5.2-4.5,7.1-6.4c1.8-1.9,3-3.4,3.6-4.3C242.8,192.3,243.1,191.6,243.1,191.2 M234.2,229c-3.7,3.8-6.9,7.1-9.6,10 c-3.9,4.1-6.2,7-7.1,8.8c1.1-0.3,2.7-1.2,4.8-2.6c2.1-1.4,4.1-3.2,6.2-5.4C231.9,236.2,233.8,232.5,234.2,229 M303.2,155.9 c-0.4,0-0.9,0.2-1.5,0.5c-0.4,0.3-0.9,0.6-1.2,0.9c-0.3,0.3-0.9,0.8-1.7,1.5c-1.6,1.5-4,3.7-7,6.6c-2.6,2.6-5.6,5.5-9,9 c-1.4,0-3.3,0-5.9,0.1c-7.8,0.2-14.3,0.2-19.4,0.2c-3,0-5.6,0-7.7-0.1c-0.4,0-0.8,0.1-1.2,0.3s-0.6,0.5-0.8,0.8 c-0.2,0.4-0.4,0.8-0.4,1.3c0,0.6,0.2,1.2,0.6,1.7c0.4,0.5,1,0.8,1.7,0.8c2.3,0.1,5.4,0.1,9.1,0.1c4.9,0,11-0.1,18.1-0.2 c0.3,0,0.5,0,0.8,0c-2.7,2.6-5.4,5.4-8.2,8.2c-11,11.1-22,22.2-32.7,33.2c-0.4-1.6-1.1-3.4-2-5.7c-1.2-3.2-2-5.7-2.3-7.5 c13.8-11,14.6-15.4,13.9-17.7c-0.4-1.5-1.5-2.4-3-2.5c-0.2,0-0.3,0-0.5,0c-1.9,0-4.2,1.1-6.8,3.4c-2.7,2.3-5,5.3-6.8,8.9 c-0.6,1.2-1.1,2.5-1.3,3.8s-0.3,2.4-0.3,3.4s0.2,2.2,0.6,3.6c0.3,1.4,0.6,2.4,0.9,3.2c0.3,0.7,0.7,1.8,1.2,3.2 c1.3,3.4,2.1,6.1,2.4,8c-4.2,4.3-7.8,8.1-10.9,11.3c-1.6,1.7-3,3.3-4.2,4.7s-2,2.5-2.5,3.3s-0.9,1.5-1.2,2.1 c-0.3,0.7-0.6,1.5-0.3,2.2c0,0.2,0,0.4,0,0.6c0.3,1.1,1.1,1.8,2.2,2c0.3,0.1,0.6,0.1,0.9,0.1c1.7,0,3.8-1,6.7-2.9 c2.7-1.8,5.2-4,7.4-6.3c4.6-4.9,6.9-10.1,6.8-15.4c16.1-16.6,31.9-32.6,46.9-47.6c0.2,0,0.4,0,0.6,0c-4.1,6.4-7.8,12.6-11,18.5 c-11.8,21.3-15.3,34.1-10.7,39.1c1.3,1.4,3.1,2.1,5.5,2.1c3.2,0,7.3-1.3,12.6-4.1c9-4.7,21.7-13.6,37.6-26.5 c1.1-0.9,1.2-2.3,0.4-3.4c-0.6-0.8-1.3-1-1.8-1s-1,0.2-1.5,0.6c-7.3,5.9-13.9,11-19.8,15.1c-5.8,4.1-10.5,7.2-14,9.2 c-3.4,2-6.4,3.4-8.8,4.2c-2.6,0.9-4,1.1-4.7,1.1c-0.1,0-0.2,0-0.3,0c-0.8-0.1-1.4-0.3-1.7-0.7c-0.6-0.6-0.8-1.5-0.8-2.8 c0-1.5,0.3-3.3,0.9-5.3c0.6-2.1,1.3-4.3,2.2-6.5c0.9-2.2,1.9-4.5,3-7c1.2-2.5,2.3-4.6,3.1-6.4c0.9-1.8,1.9-3.6,2.8-5.3 c3.8-6.8,8.1-13.9,12.8-21.1c1.8,0,3.5,0,5.1,0c10.5,0,18.9,0.4,25.1,1.2c0.1,0,0.1,0,0.1,0h0.1c1.4,0,2.3-0.8,2.4-2.2 c0.1-0.7-0.1-1.3-0.5-1.8s-0.9-0.8-1.5-0.9c-6.4-0.8-15-1.2-25.6-1.2h-1.8c3.5-5.2,6.4-9,8.5-11.5c0.7-0.9,1.1-1.4,1.4-1.8 c0.3-0.3,0.5-0.7,0.8-1.2c0.4-0.7,0.6-1.3,0.4-1.9c-0.1-0.5-0.3-0.9-0.7-1.3l-0.1-0.1c-0.4-0.4-0.9-0.6-1.3-0.6 C303.4,156,303.3,155.9,303.2,155.9 M235.2,199.2c1.1-1.8,2.4-3.2,3.7-4.4c0.7-0.6,1.2-1,1.7-1.4c-0.6,0.8-1.5,1.9-2.8,3.1 C237,197.5,236.1,198.3,235.2,199.2 M221.3,244.4c1.1-1.3,2.5-2.8,4.2-4.6c1.9-2,4-4.2,6.2-6.5c-0.9,1.9-2.2,3.7-4,5.6 c-2,2.1-4,3.8-6,5.2C221.6,244.2,221.4,244.3,221.3,244.4"></path> <path class="st0" d="M310.1,229.2c-1,0-1.9-0.3-2.5-0.9c-0.6-0.7-0.9-1.4-0.9-2.4c0-0.9,0.2-2.1,0.7-3.8c0.5-1.6,1.5-3.8,3.2-6.7 c1.6-2.8,3.7-6.2,6.4-10.4c0.5-0.7,1-0.9,1.4-0.9s0.7,0.1,1.1,0.4c0.5,0.3,0.8,0.7,0.8,1.2c0.1,0.4-0.1,0.9-0.4,1.4 c-2,3.1-3.7,5.9-5.1,8.3c-1.4,2.4-2.4,4.3-3,5.6s-1,2.3-1.3,3.1c-0.3,1.1-0.3,1.3-0.3,1.4l0,0h0.1c0.6,0,2.1-0.4,5.7-2.5 c2.5-1.4,6.8-4.2,12.8-8.2c8.6-5.8,14-9.2,16.7-10.2c0.2-0.1,0.4-0.1,0.6-0.1c0.3,0,0.5,0.1,0.8,0.2c0.4,0.2,0.8,0.6,0.9,1.1 c0.2,0.5,0.1,0.9-0.1,1.4s-0.5,0.8-0.9,0.9c-2.4,0.9-7.8,4.2-16,9.7c-6,4.1-10.4,6.9-13.3,8.6C314.2,228.3,311.8,229.2,310.1,229.2 M324.5,193.2c-0.1,0-0.3,0-0.4-0.1c0,0-0.1,0-0.2,0s-0.4-0.1-0.7-0.2c-0.3-0.1-0.6-0.3-0.9-0.5s-0.6-0.5-0.8-0.8 c-0.3-0.4-0.4-0.8-0.4-1.3c-0.1-0.5,0.1-1.1,0.6-1.6c0.8-0.9,2.1-1.3,4.1-1.3c0.5,0,0.9,0.2,1.3,0.6c0.3,0.4,0.5,0.8,0.5,1.3 s-0.2,0.9-0.5,1.3c-0.2,0.2-0.4,0.4-0.7,0.5c0,0.2,0,0.4,0,0.6C326.2,192.6,325.5,193.2,324.5,193.2"></path> <path class="st0" d="M325.7,188c0.3,0,0.6,0.1,0.9,0.4c0.2,0.2,0.4,0.5,0.4,0.9c0,0.3-0.1,0.6-0.4,0.9c-0.2,0.3-0.5,0.4-0.9,0.4 h-0.3c0.3,0.3,0.4,0.6,0.3,1c-0.1,0.7-0.5,1.1-1.2,1.1c-0.1,0-0.1,0-0.2,0s-0.2-0.1-0.3-0.1c-0.1,0-0.4-0.1-0.7-0.2 c-0.3-0.1-0.6-0.2-0.8-0.4c-0.2-0.2-0.5-0.4-0.6-0.7c-0.2-0.3-0.3-0.6-0.3-0.9c-0.1-0.4,0.1-0.8,0.4-1.2 C322.8,188.3,324,188,325.7,188 M318.4,204.8c0.2,0,0.5,0.1,0.8,0.3c0.7,0.5,0.8,1,0.3,1.7c-2.1,3.1-3.8,5.9-5.2,8.4 c-1.4,2.5-2.4,4.3-3,5.6s-1,2.4-1.3,3.2c-0.3,0.9-0.4,1.4-0.4,1.6c0,0.2,0.1,0.4,0.1,0.4c0.1,0.1,0.3,0.1,0.5,0.1 c1,0,3-0.9,5.9-2.6c2.5-1.4,6.8-4.1,12.8-8.2c8.4-5.7,14-9.1,16.5-10.1c0.1-0.1,0.3-0.1,0.4-0.1c0.2,0,0.4,0,0.5,0.1 c0.3,0.1,0.5,0.4,0.6,0.7s0.1,0.7,0,1s-0.3,0.5-0.6,0.6c-2.4,0.9-7.8,4.2-16.1,9.8c-5.9,4-10.3,6.9-13.3,8.6 c-3,1.7-5.3,2.5-6.9,2.5c-0.9,0-1.6-0.2-2.1-0.7c-0.4-0.5-0.7-1.1-0.7-1.9c0-0.8,0.2-2,0.7-3.6s1.5-3.8,3.1-6.6s3.7-6.3,6.4-10.3 C317.7,205,318,204.8,318.4,204.8 M325.7,186.8c-2.1,0-3.6,0.5-4.5,1.5c-0.5,0.6-0.8,1.3-0.7,2.1c0,0.5,0.2,1.1,0.5,1.5 s0.6,0.7,1,1c0.3,0.2,0.7,0.4,1.1,0.5c0.3,0.1,0.6,0.2,0.8,0.3c0,0,0,0,0.1,0c0.2,0.1,0.4,0.1,0.6,0.1c1.3,0,2.2-0.8,2.4-2.1 c0-0.1,0-0.2,0-0.3c0.2-0.1,0.3-0.2,0.5-0.4c0.5-0.5,0.7-1.1,0.7-1.7c0-0.7-0.2-1.3-0.7-1.7C327,187,326.4,186.8,325.7,186.8 M318.4,203.6c-0.4,0-1.2,0.1-1.9,1.1c-2.7,4.2-4.8,7.6-6.4,10.4c-1.7,2.9-2.7,5.2-3.2,6.9s-0.8,3-0.7,4c0,1.1,0.4,2,1,2.7l0.1,0.1 c0.8,0.7,1.7,1.1,2.9,1.1c1.8,0,4.3-0.9,7.5-2.7c3-1.7,7.4-4.5,13.4-8.6c8.2-5.6,13.5-8.8,15.9-9.7c0.6-0.2,1-0.7,1.3-1.3 s0.3-1.2,0.1-1.9c-0.2-0.6-0.6-1.1-1.2-1.4c-0.3-0.1-0.7-0.2-1-0.2s-0.5,0-0.8,0.1c-2.7,1.1-8.2,4.4-16.8,10.3 c-6,4-10.3,6.8-12.7,8.1c-2.6,1.5-4,2.1-4.7,2.3c0-0.1,0.1-0.3,0.1-0.5c0.3-0.8,0.7-1.8,1.2-3.1c0.6-1.2,1.6-3.1,3-5.5 s3.1-5.2,5.2-8.3c0.5-0.7,0.5-1.4,0.5-1.8c-0.1-0.6-0.4-1.2-1.1-1.6C319.3,203.8,318.8,203.6,318.4,203.6"></path> <path class="st0" d="M334.8,227.2c-0.7,0-1.3-0.3-1.8-0.8c-0.4-0.5-0.6-0.9-0.6-1.4c-0.1-0.4,0-1.1,1.1-3.3c0.8-1.6,2-3.7,3.7-6.3 c3.4-4.9,6.5-8.8,9.4-11.5c0.4-0.4,0.8-0.6,1.2-0.6c0.5,0,0.9,0.2,1.3,0.6c0.4,0.4,0.6,0.8,0.6,1.3s-0.2,0.9-0.7,1.3 c-2.2,2.1-4.8,5.2-7.5,9c-1.9,2.7-3.4,4.9-4.3,6.6c0.3-0.2,0.6-0.5,1-0.7l1.9-1.4c4-3.1,7.2-5.6,9.5-7.3c2.3-1.8,5.3-3.9,8.9-6.3 c3.7-2.4,6.8-4.3,9.4-5.5c1-0.5,1.9-0.7,2.7-0.7c0.8,0,1.5,0.3,2.1,0.8c0.5,0.5,0.9,1.1,1,1.8s0.1,1.5-0.2,2.7c-0.2,1-0.5,2-0.8,3 c-0.3,0.9-0.7,2.3-1.3,4.1c-1.6,4.6-2.5,7.8-2.6,9.5c0.7-0.4,2.2-1.2,5.3-3.1c9.5-6,18.9-11.1,28-15.2c0.3-0.1,0.5-0.2,0.8-0.2 c0.5,0,1.1,0.2,1.6,1.2c0.2,0.5,0.2,1,0.1,1.5c-0.2,0.4-0.5,0.7-1,0.9c-8.9,4-18.2,9.1-27.6,14.9c-2.9,1.9-4.9,3-6,3.5 c-0.7,0.3-1.3,0.4-1.8,0.4s-0.9-0.1-1.3-0.3c-1-0.6-1.5-1.7-1.4-3.3c0-2,0.9-5.6,2.8-11.1c1.6-4.8,2-6.7,2.1-7.4 c-0.2,0.1-0.4,0.1-0.8,0.3c-2.5,1.2-5.5,3-9.1,5.4c-3.5,2.4-6.5,4.4-8.8,6.1c-2.3,1.7-5.4,4.1-9.4,7.2l-1.8,1.4 C337.7,226.2,335.9,227.2,334.8,227.2"></path> <path class="st0" d="M370.4,200.7c0.7,0,1.2,0.2,1.7,0.6c0.4,0.4,0.7,0.9,0.8,1.5c0.1,0.6,0.1,1.4-0.2,2.4c-0.2,1-0.5,2-0.8,3 c-0.3,0.9-0.8,2.3-1.3,4.1c-1.7,5-2.6,8.4-2.6,10c0,0.2,0,0.3,0.1,0.5c0.6-0.1,2.6-1.3,6.1-3.4c9.5-6,18.8-11,27.9-15.1 c0.2-0.1,0.4-0.1,0.5-0.1c0.4,0,0.8,0.3,1,0.8c0.3,0.8,0.1,1.3-0.6,1.6c-9,4.1-18.2,9.1-27.7,15c-2.9,1.8-4.8,3-5.9,3.5 c-0.6,0.3-1.1,0.4-1.6,0.4c-0.4,0-0.7-0.1-1.1-0.3c-0.8-0.5-1.2-1.4-1.1-2.8c0-2,0.9-5.6,2.8-10.9c1.6-4.9,2.3-7.6,2-8.3 c-0.1,0-0.1,0-0.2,0c-0.3,0-0.8,0.1-1.4,0.4c-2.6,1.2-5.6,3-9.1,5.4s-6.5,4.4-8.8,6.2c-2.3,1.7-5.5,4.1-9.4,7.2l-1.8,1.4 c-2.4,1.8-4.1,2.8-5.1,2.8c-0.5,0-1-0.2-1.4-0.6c-0.3-0.3-0.4-0.7-0.5-1.1c0-0.4,0.3-1.4,1-3s2-3.7,3.7-6.2 c3.4-4.9,6.5-8.7,9.3-11.4c0.3-0.3,0.6-0.4,0.9-0.4s0.6,0.2,0.9,0.5c0.5,0.6,0.5,1.2-0.1,1.7c-2.3,2.2-4.8,5.2-7.6,9.1 c-2.8,3.9-4.6,6.8-5.3,8.6c0.7-0.4,1.6-1,2.8-1.9l1.9-1.4c4-3.1,7.2-5.6,9.5-7.3c2.3-1.8,5.3-3.9,8.9-6.3c3.6-2.4,6.7-4.3,9.3-5.5 C369,200.9,369.8,200.7,370.4,200.7 M370.4,199.5c-0.9,0-1.8,0.2-2.9,0.7c-2.7,1.3-5.8,3.1-9.5,5.6c-3.6,2.4-6.6,4.5-9,6.3 c-2.2,1.7-5.2,4-9.5,7.3l-0.4,0.3c0.7-1.1,1.6-2.4,2.7-3.9c2.8-3.8,5.3-6.9,7.5-8.9c0.5-0.5,0.8-1.1,0.8-1.7c0-0.4-0.1-1.1-0.7-1.7 c-0.6-0.7-1.3-0.8-1.7-0.8c-0.6,0-1.1,0.2-1.6,0.7c-2.9,2.7-6.1,6.6-9.5,11.6c-1.8,2.7-3,4.8-3.8,6.4c-1,2.3-1.2,3.1-1.1,3.7 c0.1,0.6,0.3,1.2,0.7,1.7c0,0,0,0.1,0.1,0.1c0.6,0.6,1.4,0.9,2.2,0.9c1.3,0,3.2-0.9,5.8-3l1.8-1.4c4-3.1,7.1-5.5,9.4-7.2 s5.3-3.8,8.8-6.1c3.4-2.3,6.3-4,8.7-5.2c-0.2,1.1-0.7,2.9-1.8,6.3c-1.9,5.5-2.8,9.2-2.8,11.3c-0.1,2.2,0.9,3.3,1.7,3.8 c0.5,0.3,1.1,0.4,1.7,0.4s1.3-0.2,2.1-0.5c1.1-0.5,3.1-1.7,6.1-3.6c9.4-5.9,18.6-10.9,27.5-14.9c0.7-0.3,1.1-0.8,1.3-1.2 c0.2-0.6,0.2-1.2-0.1-1.9c-0.6-1.3-1.5-1.5-2.1-1.5c-0.3,0-0.6,0.1-1,0.2c-9.1,4.2-18.6,9.3-28.1,15.2c-2,1.3-3.4,2.1-4.2,2.6 c0.3-1.5,0.9-4,2.4-8.2c0.6-1.8,1-3.2,1.3-4.1c0.3-1,0.6-2.1,0.8-3.1c0.2-1.2,0.3-2.2,0.2-2.9c-0.2-0.9-0.6-1.6-1.2-2.2 C372.3,199.9,371.4,199.5,370.4,199.5"></path> <path class="st0" d="M409.9,228.8c-0.7,0-1.3-0.3-1.8-0.8c-0.9-0.9-0.9-2.4-0.1-4.4c0.7-1.7,2.5-5,5.4-9.9c-1.9,1.1-4.5,3-8,5.7 L405,220c-5.4,4.1-9.3,6.1-12,6.1c-1.3,0-2.3-0.4-3-1.3c-1.3-1.6-1-4.2,1-7.7c1.9-3.3,5.1-7.2,9.5-11.7c2.2-2.2,4.4-3.7,6.5-4.5 c1.3-0.5,2.5-0.7,3.6-0.7c0.9,0,1.7,0.1,2.4,0.4c2.9,1.1,4.5,3.7,5,7.7c0,0.6-0.1,1.1-0.4,1.5c1.6,1.6-0.2,4.6-0.8,5.6 c-2.5,4.3-4.3,7.4-5.1,9.2c1.7-0.8,4.8-2.5,9-5c13.4-8,23.6-13.3,30.3-15.8c0.2-0.1,0.4-0.1,0.6-0.1s0.5,0,0.7,0.2 c0.4,0.2,0.8,0.6,0.9,1.1c0.2,0.5,0.1,1-0.1,1.4s-0.6,0.8-1,0.9c-6.5,2.4-16.5,7.6-29.7,15.5c-3.8,2.2-6.6,3.8-8.3,4.7 C412.2,228.4,410.9,228.8,409.9,228.8 M392.8,222.4c0.2,0,0.4,0,1-0.2c0.5-0.1,1.2-0.4,2-0.7s1.8-0.9,3-1.6 c1.2-0.8,2.6-1.7,4.1-2.8l0.6-0.4c6.6-5.1,9.6-6.8,11.1-7.4c-0.1-0.2-0.1-0.4-0.1-0.6c-0.3-2.5-1.2-4-2.7-4.6 c-0.3-0.1-0.8-0.1-1.2-0.1c-2.2,0-4.8,1.4-7.6,4.3c-2.9,2.9-5.2,5.5-6.9,7.8c-1.7,2.3-2.7,4-3,5C392.8,222,392.8,222.4,392.8,222.4 C392.7,222.4,392.8,222.4,392.8,222.4"></path> <path class="st0" d="M410.5,200.7c0.8,0,1.5,0.1,2.2,0.4c2.7,1,4.2,3.4,4.6,7.2c0.1,0.8-0.3,1.2-1,1.3c0.3,0.1,0.5,0.3,0.7,0.4 c0.9,0.8,0.6,2.5-0.8,4.9c-3.4,5.8-5.3,9.4-5.7,10.6c1.3-0.4,4.8-2.3,10.5-5.6c13.5-8,23.5-13.2,30.2-15.7c0.1-0.1,0.3-0.1,0.4-0.1 c0.2,0,0.3,0,0.5,0.1c0.3,0.1,0.5,0.4,0.6,0.7s0.1,0.7,0,1s-0.4,0.5-0.7,0.6c-6.6,2.4-16.5,7.6-29.8,15.6c-3.8,2.2-6.6,3.8-8.3,4.7 c-1.7,0.9-3,1.3-3.9,1.3c-0.5,0-1-0.2-1.4-0.6c-0.7-0.7-0.7-2,0-3.7c0.7-1.8,2.6-5.2,5.6-10.3c0.3-0.5,0.5-0.9,0.7-1.3 c-1.8,0.8-5.1,3-9.8,6.7l-0.6,0.5c-5.2,4-9.1,6-11.6,6c-1.1,0-2-0.4-2.6-1.1c-1.1-1.4-0.8-3.7,1.1-7c1.8-3.3,5-7.1,9.4-11.6 c2.1-2.1,4.2-3.6,6.3-4.4C408.4,201,409.5,200.7,410.5,200.7 M392.8,223c0.3,0,0.6-0.1,1.1-0.2c0.6-0.2,1.3-0.4,2.1-0.7 c0.8-0.3,1.8-0.9,3.1-1.7c1.3-0.8,2.6-1.7,4.1-2.8l0.6-0.4c6.3-4.9,10.3-7.4,11.9-7.5c-0.4-0.2-0.7-0.5-0.7-1 c-0.3-2.8-1.4-4.5-3.1-5.2c-0.4-0.1-0.9-0.2-1.5-0.2c-2.4,0-5.1,1.5-8,4.4s-5.2,5.5-6.9,7.9c-1.7,2.4-2.7,4.1-3.1,5.2 c-0.4,1.1-0.5,1.8-0.2,2.1c0.1,0.1,0.3,0.2,0.5,0.2h0.1 M410.5,199.5c-1.2,0-2.5,0.3-3.8,0.8c-2.3,0.9-4.5,2.4-6.7,4.7 c-4.5,4.5-7.7,8.5-9.6,11.8c-2.1,3.8-2.4,6.5-0.9,8.4c0.8,1,2,1.5,3.4,1.5c2.8,0,6.9-2,12.3-6.2c0,0,0,0,0.1,0l0.5-0.5 c2.3-1.7,4.2-3.2,5.8-4.3c-2.2,3.7-3.5,6.2-4.1,7.7c-0.9,2.2-0.9,3.9,0.2,5.1c0.6,0.6,1.3,0.9,2.2,0.9c1.1,0,2.5-0.5,4.4-1.5 c1.7-0.9,4.6-2.5,8.4-4.7c13.2-7.9,23.2-13.1,29.7-15.5c0.6-0.2,1.1-0.7,1.4-1.3s0.3-1.2,0.1-1.8c-0.2-0.7-0.6-1.1-1.2-1.4 c-0.3-0.2-0.7-0.2-1-0.2s-0.5,0.1-0.8,0.1c-6.7,2.5-16.9,7.8-30.4,15.8c-3.5,2-5.8,3.4-7.4,4.2c0.9-1.6,2.2-4,4.3-7.5 c1.6-2.6,1.9-4.6,1-6c0.2-0.4,0.3-0.9,0.3-1.5c-0.5-4.3-2.3-7.1-5.4-8.2C412.3,199.7,411.5,199.5,410.5,199.5 M393.3,221.7 c0-0.1,0.1-0.3,0.2-0.6c0.2-0.7,0.9-2,3-4.9c1.6-2.3,3.9-4.9,6.8-7.8c2.7-2.7,5.2-4.1,7.2-4.1c0.4,0,0.8,0,1.1,0.1 c1.2,0.5,2,1.9,2.3,4.1c0,0.1,0,0.1,0,0.2c-1.8,0.8-4.9,2.7-10.8,7.3l-0.5,0.4c-1.4,1.1-2.8,2-4,2.8c-1.2,0.7-2.2,1.3-2.9,1.6 c-0.8,0.3-1.4,0.6-1.9,0.7C393.5,221.7,393.4,221.7,393.3,221.7"></path> <path class="st0" d="M505.5,247.2c-7.1,0-12.1-2.3-14.9-6.8c-1.7-2.8-2.3-6.2-1.7-10.1c0.6-3.9,2.3-8.1,5.1-12.5 c6.5-10.1,17.9-20.9,34.1-31.9c0,0,8.9-6.1,11.1-7.6c-1.4,0.3-2.7,0.6-3.8,0.9c-8.4,1.7-14.8,2.5-19.1,2.5h-0.4 c-4.6-0.1-7.3-1.1-8.2-3.2c-0.7-1.7-0.3-3.7,1.2-6c1.5-2.2,4.1-4.8,7.9-8c3.9-3.2,8.7-6.5,14.2-9.8c5.5-3.2,11.2-6,17-8 c4.6-1.7,8.4-2.5,11.4-2.5c0.8,0,1.6,0.1,2.3,0.2c2.3,0.4,3.9,1.5,5,3.2c0.5,1,0.3,1.9-0.6,2.5c-0.4,0.2-0.7,0.3-1,0.3 c-0.4,0-1-0.2-1.4-1c-0.5-0.7-1.3-1.2-2.6-1.5c-0.6-0.1-1.3-0.2-2-0.2c-4.1,0-10.2,1.9-18,5.6c-8.4,4.1-15.9,8.8-22.2,13.9 c-2.6,2.2-4.6,4.1-5.9,5.7c-1.7,2-2.1,2.8-2.2,3c-0.1,0.4-0.1,0.7-0.1,0.8c0.1,0.1,0.3,0.3,0.5,0.4c0.2,0.1,0.6,0.3,2,0.5 c0.8,0.1,1.8,0.2,2.9,0.2c0.4,0,0.8,0,1.2,0c1.7-0.1,4-0.3,7-0.7s6.5-1,10.3-1.8c1.9-0.4,4.4-1,7.4-1.8l2.4-0.6 c0.5-0.1,1-0.2,1.5-0.3c0.2,0,0.3,0,0.5,0c0.4,0,0.7,0.1,1,0.3s0.5,0.5,0.7,0.9c0.2,0.6,0.3,1.4-0.5,2.3c-0.5,0.6-1.7,1.5-3.5,2.9 c-1.6,1.2-5.7,4-12.5,8.6l-1.7,1.2c-5.3,3.6-10.2,7.2-14.5,10.8s-7.9,7-10.8,10.2s-5.3,6.2-7.2,9.1c-1.9,2.9-3.3,5.6-4.2,8 c-0.8,2.4-1.2,4.6-1.1,6.5s0.5,3.5,1.4,4.9c1.1,1.8,2.8,3.1,5.1,4c2.1,0.8,4.5,1.2,7.3,1.2c0.4,0,0.9,0,1.3,0 c3.3-0.1,7.3-1,11.7-2.7c4.5-1.6,9.1-4,13.9-7.1c3.1-2,8.4-5.9,15.6-11.5c4.4-3.5,7.7-6,10.1-7.8c2.4-1.8,5.5-3.9,9-6.1 c3.6-2.3,6.8-4,9.6-5c0.2-0.1,0.4-0.1,0.6-0.1c0.2,0,0.5,0.1,0.7,0.2c0.4,0.2,0.7,0.5,0.9,1s0.2,1,0,1.4c-0.2,0.5-0.6,0.9-1.1,1 c-2.6,1-5.7,2.6-9.1,4.8c-3.5,2.2-6.4,4.2-8.8,6c-2.3,1.8-5.7,4.3-9.9,7.7c-7.3,5.8-12.7,9.7-15.9,11.8 c-9.6,6.2-18.8,9.6-27.1,10.2C506.9,247.1,506.2,247.2,505.5,247.2"></path> <path class="st0" d="M559.4,144.7c0.8,0,1.5,0.1,2.2,0.2c2.1,0.4,3.6,1.4,4.6,2.9c0.4,0.7,0.2,1.2-0.4,1.7 c-0.3,0.2-0.5,0.3-0.7,0.3c-0.3,0-0.6-0.2-0.9-0.7c-0.6-0.9-1.6-1.5-3-1.8c-0.6-0.1-1.3-0.2-2.1-0.2c-4.3,0-10.3,1.9-18.2,5.7 c-8.5,4.1-16,8.8-22.3,14c-2.6,2.2-4.7,4.2-6,5.8s-2.1,2.7-2.3,3.2c-0.2,0.5-0.2,1-0.1,1.3c0.2,0.2,0.4,0.4,0.8,0.7 c0.4,0.2,1.1,0.4,2.2,0.6c0.8,0.1,1.8,0.2,2.9,0.2c0.4,0,0.8,0,1.2,0c1.6-0.1,4-0.3,7-0.7s6.5-1,10.4-1.8c1.9-0.4,4.4-1,7.5-1.8 c1.1-0.3,1.9-0.5,2.4-0.6s1-0.2,1.5-0.3c0.1,0,0.3,0,0.4,0c0.3,0,0.5,0,0.7,0.1s0.4,0.4,0.5,0.7c0.2,0.5,0.1,1.1-0.4,1.7 c-0.5,0.6-1.6,1.5-3.4,2.8c-1.7,1.2-5.8,4.1-12.5,8.6l-1.7,1.2c-5.4,3.6-10.2,7.3-14.5,10.9c-4.3,3.6-7.9,7-10.8,10.2 s-5.3,6.2-7.3,9.2c-2,2.9-3.4,5.6-4.2,8.1c-0.8,2.5-1.2,4.7-1.2,6.7c0.1,2,0.5,3.7,1.5,5.2c1.1,1.9,2.9,3.3,5.4,4.2 c2.2,0.8,4.7,1.2,7.5,1.2c0.4,0,0.9,0,1.3,0c3.4-0.1,7.4-1,11.9-2.7s9.2-4,14-7.1c3.1-2,8.3-5.9,15.6-11.5c4.3-3.4,7.7-6,10.1-7.8 c2.4-1.8,5.4-3.8,9-6.1s6.8-3.9,9.5-5c0.1-0.1,0.2-0.1,0.4-0.1s0.3,0,0.5,0.1c0.3,0.1,0.5,0.4,0.7,0.7c0.1,0.3,0.1,0.6,0,1 c-0.1,0.3-0.4,0.6-0.7,0.7c-2.7,1-5.7,2.6-9.2,4.9c-3.5,2.2-6.5,4.2-8.8,6c-2.4,1.8-5.7,4.3-9.9,7.7c-7.4,5.8-12.6,9.7-15.9,11.7 c-9.6,6.2-18.6,9.6-26.8,10.1c-0.8,0.1-1.5,0.1-2.2,0.1c-6.9,0-11.7-2.2-14.4-6.5c-1.7-2.7-2.2-5.9-1.6-9.7s2.3-7.9,5-12.3 c6.4-10.1,17.7-20.7,33.9-31.7l1.7-1.2c6.3-4.3,10.3-7.1,12.2-8.4c-2.7,0.7-5.1,1.3-7,1.7c-8.4,1.7-14.7,2.5-19,2.5H516 c-4.3-0.1-6.9-1-7.7-2.8c-0.6-1.4-0.3-3.2,1.2-5.4c1.4-2.1,4-4.7,7.8-7.9c3.9-3.2,8.7-6.5,14.1-9.7c5.5-3.2,11.1-5.9,16.9-8 C552.7,145.5,556.4,144.7,559.4,144.7 M559.4,143.5c-3.1,0-7,0.9-11.6,2.6c-5.8,2.1-11.5,4.8-17.1,8.1c-5.5,3.3-10.3,6.6-14.3,9.8 c-3.9,3.2-6.5,5.9-8.1,8.1c-1.7,2.5-2.1,4.7-1.3,6.6c1,2.3,3.9,3.5,8.7,3.5h0.4c4.4,0,10.8-0.9,19.2-2.5c0.2,0,0.5-0.1,0.7-0.2 c-1.9,1.3-4.1,2.8-6.8,4.7l-1.7,1.2c-16.2,11.1-27.7,21.9-34.2,32.1c-2.8,4.5-4.6,8.8-5.2,12.8c-0.6,4.1,0,7.6,1.8,10.6 c2.9,4.7,8.1,7.1,15.4,7.1c0.7,0,1.5,0,2.3-0.1c8.4-0.6,17.6-4,27.4-10.3c3.3-2,8.6-6,16-11.8c4.2-3.3,7.6-5.9,9.9-7.6 c2.3-1.7,5.3-3.7,8.7-5.9s6.5-3.8,9-4.8c0.6-0.2,1.1-0.7,1.4-1.3c0.3-0.7,0.3-1.3,0-1.9c-0.3-0.6-0.7-1-1.2-1.3 c-0.3-0.2-0.6-0.2-1-0.2c-0.3,0-0.5,0-0.8,0.2c-2.8,1.1-6.1,2.8-9.7,5.1c-3.6,2.3-6.6,4.3-9.1,6.2c-2.4,1.8-5.7,4.4-10.1,7.8 c-7.2,5.6-12.5,9.5-15.6,11.5c-4.7,3-9.4,5.4-13.8,7c-4.4,1.6-8.3,2.5-11.6,2.7c-0.4,0-0.8,0-1.3,0c-2.7,0-5.1-0.4-7.1-1.1 c-2.2-0.8-3.8-2.1-4.8-3.7c-0.8-1.3-1.2-2.9-1.3-4.6c0-1.8,0.3-3.9,1.1-6.3c0.8-2.4,2.2-5,4.1-7.8c1.9-2.9,4.3-5.9,7.2-9 c2.8-3.1,6.4-6.5,10.7-10.1c4.3-3.6,9.1-7.2,14.4-10.8l1.7-1.2c6.8-4.6,10.9-7.4,12.5-8.6c1.9-1.3,3-2.3,3.6-2.9 c1.1-1.2,0.8-2.4,0.6-2.9c-0.3-0.6-0.6-1-0.9-1.3c-0.3-0.2-0.8-0.4-1.3-0.4c-0.2,0-0.3,0-0.5,0c-0.6,0.1-1.1,0.2-1.6,0.3l-0.6,0.2 l-1.8,0.4c-3,0.8-5.5,1.5-7.4,1.8c-3.8,0.8-7.3,1.4-10.3,1.8c-3,0.4-5.3,0.6-6.9,0.7c-0.4,0-0.8,0-1.2,0c-1.1,0-2-0.1-2.8-0.2 c-1.4-0.2-1.7-0.4-1.7-0.4c-0.1-0.1-0.2-0.1-0.3-0.2c0-0.1,0-0.2,0.1-0.4c0-0.1,0.3-0.7,2-2.8c1.3-1.5,3.3-3.4,5.9-5.6 c6.2-5.1,13.6-9.7,22.1-13.8c7.7-3.7,13.6-5.6,17.7-5.6c0.7,0,1.3,0.1,1.9,0.2c1,0.2,1.8,0.6,2.2,1.2c0.6,1.1,1.4,1.2,1.9,1.2 c0.4,0,0.9-0.1,1.3-0.4c1.2-0.8,1.5-2,0.8-3.3c-1.2-1.9-3-3.1-5.4-3.5C561,143.6,560.2,143.5,559.4,143.5"></path> <path class="st0" d="M576.4,226.3c-3.4,0-5.6-1.3-6.6-4c-1-2.6-0.6-5.9,1.2-9.7c1.8-3.7,4.2-7.1,7.2-9.9c2.6-2.4,5.6-4.3,8.7-5.5 c1.8-0.7,3.4-1.1,4.7-1.1c1.1,0,2.1,0.2,2.9,0.7c2,1.1,2.8,3.2,2.3,6.1c-0.1,0.5-0.3,0.9-0.7,1.2c-0.3,0.2-0.7,0.3-1,0.3 c-0.1,0-0.2,0-0.3,0c-0.5-0.1-0.9-0.3-1.1-0.7c-0.3-0.4-0.4-0.9-0.3-1.4c0.2-1.2,0-2-0.5-2.3c-0.3-0.2-0.7-0.3-1.2-0.3 c-1,0-2.2,0.3-3.7,0.9c-2.5,1-4.9,2.6-7.3,4.8c-2.7,2.5-4.8,5.4-6.3,8.5c-1.4,3-1.8,5.4-1.2,7c0.4,1.1,1.5,1.6,3.3,1.6h0.2 c1.4,0,3.8-0.7,6.9-2.1c3.2-1.3,6.2-2.7,8.7-4c2.6-1.3,6.5-3.4,11.6-6.1c5.6-3,9.9-5.2,12.7-6.6c0.3-0.2,0.6-0.3,0.9-0.3 c0.4,0,1,0.2,1.5,1.1c0.2,0.5,0.3,1,0.1,1.4c-0.1,0.4-0.5,0.8-1,1c-2.8,1.4-6.9,3.5-12.6,6.6c-5.3,2.8-9.3,5-12.1,6.4 c-2.7,1.4-5.7,2.7-9,4.1c-3.4,1.4-5.9,2.1-7.7,2.1l0,0h-0.3L576.4,226.3L576.4,226.3z"></path> <path class="st0" d="M591.5,196.7c1,0,1.9,0.2,2.6,0.6c1.8,1,2.5,2.8,2,5.4c-0.1,0.3-0.2,0.6-0.5,0.8c-0.2,0.1-0.4,0.2-0.7,0.2 c-0.1,0-0.1,0-0.2,0c-0.3-0.1-0.6-0.2-0.8-0.5s-0.3-0.5-0.2-0.9c0.2-1.5-0.1-2.5-0.8-2.9c-0.4-0.2-0.9-0.3-1.5-0.3 c-1,0-2.3,0.3-3.9,1c-2.6,1-5,2.7-7.4,4.9c-2.8,2.6-4.9,5.5-6.4,8.7s-1.9,5.7-1.2,7.5c0.5,1.3,1.8,2,3.9,2c0.1,0,0.2,0,0.3,0 c1.5,0,3.9-0.7,7.1-2.1c3.2-1.3,6.2-2.7,8.8-4s6.5-3.4,11.6-6.1c5.6-3,9.8-5.2,12.6-6.6c0.2-0.1,0.5-0.2,0.7-0.2 c0.4,0,0.7,0.3,0.9,0.7c0.4,0.7,0.2,1.3-0.5,1.6c-2.8,1.4-7,3.6-12.6,6.6c-5.4,2.9-9.4,5-12,6.4c-2.7,1.4-5.7,2.7-9,4.1 c-3.3,1.3-5.8,2-7.5,2.1h-0.3c-3.1,0-5.2-1.2-6.1-3.6c-1-2.5-0.6-5.5,1.1-9.2c1.7-3.7,4.1-6.9,7.1-9.7c2.6-2.4,5.4-4.2,8.5-5.4 C588.7,197.1,590.2,196.7,591.5,196.7 M591.5,195.5c-1.4,0-3.1,0.4-5,1.1c-3.2,1.3-6.1,3.2-8.8,5.7c-3.1,2.9-5.5,6.3-7.3,10.1 c-1.9,4-2.3,7.4-1.2,10.2c0.8,2,2.6,4.3,7.2,4.3h0.3c1.9-0.1,4.5-0.8,8-2.2c3.3-1.3,6.4-2.7,9.1-4.1c2.8-1.4,6.8-3.6,12.1-6.4 c5.7-3.1,9.8-5.2,12.6-6.6c0.8-0.4,1.1-0.9,1.3-1.3c0.2-0.6,0.1-1.2-0.2-1.9c-0.6-1.2-1.5-1.4-2-1.4c-0.4,0-0.8,0.1-1.2,0.3 c-2.8,1.4-7,3.6-12.6,6.6c-5,2.7-8.9,4.7-11.6,6.1c-2.5,1.3-5.5,2.7-8.7,4c-3.1,1.3-5.4,2-6.7,2h-0.2c-2.3,0-2.7-0.9-2.8-1.3 c-0.6-1.4-0.2-3.6,1.2-6.5c1.4-3.1,3.5-5.8,6.1-8.3c2.3-2.1,4.6-3.7,7.1-4.7c1.5-0.6,2.7-0.9,3.5-0.9c0.4,0,0.7,0.1,1,0.2 c0.4,0.2,0.3,1.4,0.2,1.7c-0.1,0.6,0,1.3,0.4,1.8s0.9,0.8,1.5,0.9c0.1,0,0.3,0,0.4,0c0.5,0,1-0.2,1.4-0.5c0.5-0.4,0.9-0.9,1-1.6 c0.7-4-1.1-5.8-2.6-6.7C593.8,195.8,592.7,195.5,591.5,195.5"></path> <path class="st0" d="M605.7,231.5c-0.4,0-0.8-0.2-1.2-0.5c-0.4-0.2-0.7-0.6-0.8-1c-0.1-0.3-0.2-0.9,0.3-2.8 c0.4-1.4,1.1-3.2,2.2-5.5c0-0.1,0.1-0.1,0.1-0.2c0.5-1,1.5-2.7,2.9-5.2c2.6-4.7,4.8-8.6,6.5-11.6s4.1-7.1,7-12.1s6-10,9.2-14.8 c3.1-4.7,6.3-9.4,9.5-13.7c1.7-2.3,3.5-4.6,5.2-6.7c1.7-2,3.6-4.2,5.7-6.5c2.1-2.3,4.1-4,6-5.2c1.6-1.1,3.1-1.6,4.3-1.6 c0.2,0,0.5,0,0.7,0.1c0.9,0.2,2,0.8,2.4,2.6c0.4,1.4,0.1,3.2-0.7,5.6c-0.8,2.2-2,4.9-3.7,7.8c-1.6,3-3.7,6.1-6.2,9.4 c-9.1,12.7-21.4,25.3-36.5,37.4l-0.1,0.1c-1.4,2.6-3.5,6.3-6.1,11c-1.3,2.4-2.2,4.2-2.8,5.3c0,0,0,0,0,0.1 c4.2-4.6,9.3-9.3,15.2-14.1c0.4-0.5,0.8-0.9,1.4-1.1c4.3-3.4,8.5-6.4,12.4-8.9c5.5-3.5,9.6-5.2,12.3-5.2c0.9,0,1.7,0.2,2.4,0.6 c1.2,0.8,1.7,2,1.5,3.6c-0.2,2-1.4,4.1-3.5,6.3s-4.5,3.8-7.2,4.8c-3.1,1.1-7.6,1.8-13.5,2.1c-1.5,0.1-2.3,0.1-2.7,0.1 c0,0,0,0-0.1,0c0,0.5,0,1.1,0,1.9c0,0.8,0.3,1.9,0.8,3.2s1.1,2.6,1.9,3.7c1.8,2.6,3.9,3.8,6.2,3.8c1.4,0,2.8-0.4,4.4-1.3 c1.5-0.8,4-2.3,7.6-4.6c3.3-2.1,6-3.7,8-4.9s4.9-2.8,8.5-4.7s7.2-3.6,10.6-5l1.1-0.4c0.1,0,0.1,0,0.2,0c0.2,0,0.4,0.1,0.5,0.4 l0.5,1.1c0.2,0.5,0.2,1,0,1.4s-0.5,0.7-1,0.9c-3.3,1.4-6.8,3-10.3,4.9s-6.3,3.4-8.3,4.6c-2,1.2-4.6,2.8-7.8,4.8 c-3.7,2.3-6.3,3.9-7.8,4.7c-2.1,1.2-4.1,1.8-6.1,1.8c-2.2,0-4.3-0.8-6.3-2.3c-0.9-0.7-1.7-1.6-2.5-2.6s-1.4-2.1-1.9-3.2 c-0.5-1.1-0.9-2.2-1.2-3.3c-0.2-0.7-0.3-1.4-0.4-2c-5.7,4.8-10.5,9.5-14.3,13.9C608,230.5,606.7,231.5,605.7,231.5 M650.6,197.7 c-2,0-5.5,1.6-10.4,4.7c-2.4,1.5-4.9,3.3-7.5,5.2c4.1-0.3,7.4-0.9,9.8-1.8c1.5-0.5,2.9-1.3,4.2-2.3s2.3-2.1,3-3.1s1.1-1.9,1.2-2.5 c0-0.1,0-0.1,0-0.1s0,0-0.1,0C650.9,197.7,650.8,197.7,650.6,197.7 M662.2,147.7c-0.2,0-0.5,0.1-1,0.3c-0.5,0.3-1.3,0.8-2.4,1.7 c-1.1,0.9-2.3,2-3.6,3.3s-3,3.2-4.9,5.4c-1.9,2.3-4,4.9-6.2,7.9c-6.5,8.9-13.4,19.5-20.5,31.6c4.8-4.2,9.4-8.5,13.5-12.8 c4.9-5.1,8.9-9.6,12-13.6c3-4,5.7-7.7,7.8-11.2c2.1-3.4,3.5-6.3,4.3-8.4C662.1,149.5,662.2,148.3,662.2,147.7"></path> <path class="st0" d="M662.4,144.6c0.2,0,0.4,0,0.6,0.1c1,0.2,1.7,1,1.9,2.2c0.3,1.3,0.1,3-0.7,5.2c-0.7,2.2-2,4.8-3.6,7.7 c-1.7,3-3.7,6.1-6.1,9.4c-9.1,12.7-21.3,25.2-36.4,37.3c-0.1,0-0.1,0-0.1,0.1c-1.5,2.7-3.6,6.4-6.3,11.2c-1.3,2.4-2.2,4.2-2.8,5.3 c-0.6,1.2-1.1,2.3-1.5,3.5c0.1-0.1,0.1-0.2,0.2-0.2c4.6-5.4,10.4-10.9,17.5-16.7c0.3-0.5,0.7-0.8,1.2-1c4.3-3.5,8.5-6.4,12.4-8.9 c5.4-3.4,9.4-5.1,12-5.1c0.8,0,1.5,0.2,2,0.5c1,0.7,1.4,1.7,1.2,3c-0.2,1.8-1.3,3.8-3.4,5.9c-2,2.1-4.4,3.7-7,4.6 c-3.1,1.1-7.5,1.8-13.3,2.1c-1.5,0.1-2.5,0.1-2.9,0.2c-0.2,0.1-0.3,0.2-0.4,0.3c-0.1,0.6-0.1,1.3,0,2.2c0,0.9,0.3,2,0.8,3.4 s1.2,2.7,2,3.8c2,2.7,4.2,4.1,6.7,4.1c1.5,0,3-0.5,4.7-1.4c1.5-0.8,4-2.3,7.6-4.6c3.3-2.1,6-3.7,7.9-4.9c2-1.2,4.8-2.7,8.4-4.7 c3.6-1.9,7.1-3.5,10.6-4.9c0.7-0.3,1.1-0.4,1.1-0.4s0.1,0.4,0.5,1.1c0.3,0.8,0.1,1.3-0.6,1.5c-3.4,1.4-6.8,3-10.4,4.9 c-3.6,1.9-6.3,3.4-8.3,4.6c-2,1.2-4.6,2.8-7.8,4.8c-3.7,2.3-6.3,3.8-7.8,4.7c-2,1.1-4,1.7-5.8,1.7c-2.1,0-4-0.7-5.9-2.2 c-0.9-0.7-1.7-1.5-2.4-2.5c-0.8-1-1.4-2-1.9-3.1s-0.9-2.1-1.2-3.2c-0.3-1.1-0.5-2.1-0.5-3c-6.1,5.1-11.2,10-15.2,14.6 c-1.6,2-2.8,2.9-3.7,2.9c-0.3,0-0.5-0.1-0.8-0.3s-0.5-0.5-0.7-0.8c-0.1-0.3,0-1.1,0.4-2.4c0.4-1.3,1.1-3.1,2.1-5.4l0.1-0.1 c0.5-1,1.5-2.8,2.9-5.3c2.6-4.7,4.7-8.6,6.4-11.6s4-7.1,7-12.1c3-5.1,6-10,9.2-14.8c3.1-4.8,6.3-9.3,9.5-13.7 c1.7-2.3,3.4-4.6,5.2-6.6c1.7-2.1,3.6-4.3,5.6-6.5c2.1-2.2,4-4,5.8-5.1C660,145.1,661.3,144.6,662.4,144.6 M621.4,200.6 c5.9-5,11.3-10,16.2-15.1s8.9-9.7,12-13.7s5.7-7.8,7.8-11.3s3.6-6.3,4.4-8.5c0.8-2.2,1.1-3.7,0.9-4.7c-0.1-0.2-0.1-0.3-0.2-0.3 h-0.2c-0.4,0-0.8,0.1-1.4,0.4c-0.6,0.3-1.4,0.9-2.5,1.7c-1.1,0.9-2.3,2-3.6,3.3s-3,3.2-4.9,5.5c-2,2.3-4,5-6.3,7.9 C636.6,175.6,629.2,187.2,621.4,200.6 M630.8,208.3c5.1-0.3,9.1-0.9,11.9-1.9c1.6-0.6,3-1.4,4.4-2.4c1.4-1.1,2.4-2.1,3.2-3.2 c0.8-1.1,1.2-2,1.3-2.8c0.1-0.3,0-0.6-0.2-0.7c-0.1-0.1-0.4-0.2-0.8-0.2c-2.1,0-5.7,1.6-10.7,4.8C637,203.7,634,205.9,630.8,208.3 M662.4,143.4c-1.3,0-2.8,0.6-4.6,1.7c-1.9,1.2-3.9,3-6.1,5.3c-2.1,2.3-4,4.5-5.7,6.5c-1.7,2.1-3.4,4.4-5.2,6.7 c-3.2,4.4-6.4,9-9.5,13.7c-3.2,4.8-6.3,9.8-9.2,14.8s-5.3,9.1-7,12.1s-3.9,6.9-6.5,11.6c-1.3,2.4-2.3,4.1-2.8,5.1 c-0.1,0.1-0.1,0.2-0.2,0.3c-1.1,2.4-1.8,4.2-2.2,5.7c-0.5,2-0.5,2.7-0.3,3.2s0.6,0.9,1,1.3c0.5,0.4,1,0.6,1.5,0.6 c1.2,0,2.6-1,4.5-3.4c3.6-4.1,8.1-8.6,13.4-13.1c0.1,0.3,0.2,0.7,0.3,1.1c0.3,1.1,0.7,2.2,1.2,3.4c0.5,1.1,1.2,2.2,2,3.3 s1.7,2,2.7,2.7c2,1.6,4.3,2.4,6.6,2.4c2,0,4.2-0.6,6.3-1.8c1.5-0.9,4.1-2.4,7.8-4.7c3.2-2,5.8-3.6,7.8-4.8s4.7-2.7,8.3-4.6 c3.5-1.8,7-3.5,10.3-4.9c0.8-0.3,1.1-0.8,1.3-1.2c0.2-0.6,0.2-1.2-0.1-1.9c-0.3-0.8-0.5-1.1-0.5-1.1c-0.2-0.5-0.6-0.8-1.1-0.8 c-0.1,0-0.3,0-0.4,0.1c0,0-0.4,0.1-1,0.4c-3.4,1.4-7,3.1-10.7,5c-3.6,1.9-6.5,3.5-8.5,4.7s-4.6,2.8-8,4.9c-3.6,2.2-6.1,3.8-7.6,4.6 s-2.9,1.3-4.1,1.3c-2.1,0-4-1.2-5.7-3.6c-0.7-1.1-1.4-2.3-1.8-3.6c-0.5-1.3-0.7-2.3-0.7-3c0-0.5,0-0.9,0-1.3c0.6,0,1.5-0.1,2.2-0.1 c6-0.3,10.4-1.1,13.6-2.2c2.8-1,5.3-2.6,7.5-4.9c2.2-2.3,3.4-4.5,3.7-6.6c0.3-2.3-0.8-3.5-1.7-4.2c-0.7-0.5-1.7-0.7-2.7-0.7 c-2.8,0-7,1.7-12.6,5.3c-3.9,2.5-8.1,5.5-12.4,8.9c-0.6,0.2-1.1,0.7-1.5,1.2c-4.6,3.7-8.7,7.4-12.2,11c0.3-0.5,0.5-1,0.8-1.5 c2.5-4.6,4.6-8.2,6.1-10.9l0,0c15.2-12.2,27.5-24.8,36.6-37.6c2.5-3.3,4.5-6.5,6.2-9.5s2.9-5.7,3.7-7.9c0.8-2.5,1.1-4.4,0.7-5.9 c-0.5-2.1-1.8-2.8-2.8-3.1C663,143.4,662.7,143.4,662.4,143.4 M626.1,194.9c6.4-10.8,12.6-20.3,18.5-28.3c2.2-2.9,4.3-5.6,6.2-7.8 c1.9-2.3,3.5-4.1,4.8-5.4c1.3-1.3,2.4-2.4,3.5-3.2c1.2-1,1.9-1.4,2.3-1.6c0,0,0.1,0,0.1-0.1c-0.1,0.6-0.3,1.6-0.8,3.1 c-0.8,2.1-2.2,4.9-4.3,8.3c-2.1,3.4-4.7,7.2-7.7,11.1c-3,4-7,8.5-11.9,13.6C633.5,188.1,629.9,191.6,626.1,194.9 M634.8,206.8 c1.9-1.4,3.9-2.7,5.7-3.9c5.5-3.5,8.3-4.4,9.7-4.6c-0.1,0.4-0.4,1-0.9,1.7c-0.7,1-1.7,2-2.9,3s-2.6,1.7-4,2.2 C640.4,205.9,637.9,206.5,634.8,206.8"></path> </g> </svg>